<?xml version="1.0" encoding="utf-8"?>
<!-- Generator: Adobe Illustrator 18.1.1, SVG Export Plug-In . SVG Version: 6.00 Build 0)  -->
<!DOCTYPE svg PUBLIC "-//W3C//DTD SVG 1.1//EN" "http://www.w3.org/Graphics/SVG/1.1/DTD/svg11.dtd">
<svg version="1.1" id="mistyNightIcon" xmlns="http://www.w3.org/2000/svg" xmlns:xlink="http://www.w3.org/1999/xlink" x="0px"
	 y="0px" width="70px" height="70px" viewBox="0 0 70 70" enable-background="new 0 0 70 70" xml:space="preserve">
<g id="moon">
	<circle fill="#F1E5A1" cx="32.6" cy="36.2" r="20"/>
	<path fill="#F5EEBC" d="M12.7,36.2c0,6.5,3.1,12.2,7.9,15.9c1.5,0.3,3,0.5,4.6,0.5c11,0,20-8.9,20-20c0-6.5-3.1-12.2-7.9-15.9
		c-1.5-0.3-3-0.5-4.6-0.5C21.6,16.2,12.7,25.2,12.7,36.2z"/>
	<circle fill="#DBD093" cx="26.4" cy="26.6" r="2.7"/>
	<circle fill="#DBD093" cx="20.2" cy="36.2" r="3.8"/>
	<circle fill="#DBD093" cx="29.9" cy="36.2" r="2"/>
</g>
<g id="wind">
	
		<line fill="none" stroke="#FFFFFF" stroke-width="1.25" stroke-linecap="round" stroke-miterlimit="10" x1="44.2" y1="32.2" x2="50.8" y2="32.2"/>
	
		<line fill="none" stroke="#FFFFFF" stroke-width="1.25" stroke-linecap="round" stroke-miterlimit="10" x1="41" y1="35.7" x2="56" y2="35.7"/>
	
		<line fill="none" stroke="#FFFFFF" stroke-width="1.25" stroke-linecap="round" stroke-miterlimit="10" x1="37" y1="39.2" x2="52.3" y2="39.2"/>
	
		<line fill="none" stroke="#FFFFFF" stroke-width="1.25" stroke-linecap="round" stroke-miterlimit="10" x1="22.6" y1="42.7" x2="52.3" y2="42.7"/>
	
		<line fill="none" stroke="#FFFFFF" stroke-width="1.25" stroke-linecap="round" stroke-miterlimit="10" x1="19.9" y1="46.1" x2="56" y2="46.1"/>
	
		<line fill="none" stroke="#FFFFFF" stroke-width="1.25" stroke-linecap="round" stroke-miterlimit="10" x1="19.2" y1="49.6" x2="54.7" y2="49.6"/>
	
		<line fill="none" stroke="#FFFFFF" stroke-width="1.25" stroke-linecap="round" stroke-miterlimit="10" x1="22.6" y1="53.1" x2="52.3" y2="53.1"/>
	
		<line fill="none" stroke="#FFFFFF" stroke-width="1.25" stroke-linecap="round" stroke-miterlimit="10" x1="25.5" y1="56.6" x2="50.7" y2="56.6"/>
	
		<line fill="none" stroke="#FFFFFF" stroke-width="1.25" stroke-linecap="round" stroke-miterlimit="10" x1="27.8" y1="60.1" x2="50" y2="60.1"/>
</g>
</svg>
