<?xml version="1.0" encoding="utf-8"?>
<!-- Generator: Adobe Illustrator 18.1.1, SVG Export Plug-In . SVG Version: 6.00 Build 0)  -->
<!DOCTYPE svg PUBLIC "-//W3C//DTD SVG 1.1//EN" "http://www.w3.org/Graphics/SVG/1.1/DTD/svg11.dtd">
<svg version="1.1" id="windIconStorm" xmlns="http://www.w3.org/2000/svg" xmlns:xlink="http://www.w3.org/1999/xlink" x="0px" y="0px"
	 width="70px" height="70px" viewBox="0 0 70 70" enable-background="new 0 0 70 70" xml:space="preserve">
	<g id="dashedLines">
		<path fill="none" stroke="#FFFFFF" stroke-linecap="round" stroke-miterlimit="10" d="M57.4,44.7c0,0-35.6,0-36.5,0"/>
		<path fill="none" stroke="#FFFFFF" stroke-linecap="round" stroke-miterlimit="10" d="M57.4,47.4c0,0-42.1,0-42.1,0
			c-1.9,0-3.4-1.5-3.4-3.4s1.5-3.4,3.4-3.4h1.9"/>
		<path fill="none" stroke="#FFFFFF" stroke-linecap="round" stroke-miterlimit="10" d="M57.4,52.7c0,0-28.1,0-28.1,0
			c-1.6,0-2.8,1.3-2.8,2.8s1.3,2.8,2.8,2.8h1.5"/>
		<path fill="none" stroke="#FFFFFF" stroke-linecap="round" stroke-miterlimit="10" d="M57.4,49.8c0,0-37.1,0-37.1,0
			c-1.6,0-2.8,1.3-2.8,2.8s1.3,2.8,2.8,2.8h1.5"/>
	</g>
</svg>
